<?xml version="1.0" encoding="UTF-8"?>
<svg version="1.1" viewBox="0 0 2048 319" width="1280" height="1280" xmlns="http://www.w3.org/2000/svg">
<path transform="translate(1307,65)" d="m0 0h191l1 1v190l-1 1h-191l-1-1v-190zm19 19-1 1v152l2 1h151l1-1v-153z" fill="#131313"/>
<path transform="translate(1171,104)" d="m0 0h7l19 50 7 18v2h2l1-5 15-39 10-25h23l-6 16-13 30-19 45-9 21-1 1h-7l-17-46-7-18v-3l-3 3-16 42-9 22h-7l-16-37-17-40-14-33-1-3h23l6 13 15 37 7 17v2h2l3-11 17-47z" fill="#050505"/>
<path transform="translate(89,101)" d="m0 0 4 1 6 9 16 29 13 23 9 16v2l3-3 15-28 26-48 5-1 2 6 17 106v2h-22l-9-62-13 24-16 29-6 10h-3l-12-21-13-24-9-16v-2h-2l-1 13-7 49h-22l3-21 14-88z" fill="#050505"/>
<path transform="translate(1397,102)" d="m0 0h11l15 3 16 8 11 10 7 11 4 10 2 10v16l-3 12-7 13-9 10-14 9-11 4-15 2-14-1-13-4-11-6-10-9-7-9-5-12-2-8v-19l5-16 7-11 7-8 14-9 15-5zm2 19-13 3-9 6-8 9-5 12v20l4 10 6 8 7 6 12 5 13 1 12-3 10-6 8-9 5-13v-17l-4-11-6-9-9-7-10-4z" fill="#060606"/>
<path transform="translate(1566,105)" d="m0 0h54l10 3 8 5 5 5 5 7 2 6v16l-3 9-7 9-8 5-7 2 6 8 12 13 9 11 8 9v4h-24l-9-10-9-11-11-13-6-8h-13l-1 42h-21zm22 16-1 1v35h29l6-3 5-6 1-2v-14l-4-6-7-4-8-1z" fill="#080808"/>
<path transform="translate(944,105)" d="m0 0h54l10 3 8 5 5 5 4 5 3 9v15l-4 11-6 7-8 5-7 2 6 8 11 12 9 11 9 10 1 4h-25l-9-10-9-11-11-13-5-6v-2h-14l-1 42h-21zm22 16-1 1v35h29l6-3 5-6 2-10-2-8-4-5-7-3-7-1z" fill="#080808"/>
<path transform="translate(1732,105)" d="m0 0h21v50l22-22 7-8 15-15 4-5h26l-6 8-23 23-7 8-14 14 2 4 11 11 7 8 25 25 7 8 2 3h-28l-17-17-7-8-10-10-7-8-4-3v2l-4 4-1 40h-21z" fill="#030303"/>
<path transform="translate(780,105)" d="m0 0h77v17l-1 1h-55v28h49v18h-49v30h57l1 1v17h-79z" fill="#0A0A0A"/>
<path transform="translate(1931,102)" d="m0 0h13l15 3 12 5 4 3-3 12-2 5-6-2-12-5-12-2-12 1-6 3h-2l-1 3v8l5 6 16 8 16 7 10 7 5 4 5 7 2 6 1 8-2 10-5 8-7 6-13 5-16 2-16-1-12-3-12-5-3-2 1-8 3-11h3l17 8 8 2h17l9-3 5-6v-7l-3-5-5-4-14-7-19-8-11-8-6-9-1-4v-11l4-10 5-6 9-6z" fill="#070707"/>
<path transform="translate(484,102)" d="m0 0h13l16 3 12 5 3 2-1 8-3 10-6-2-13-5-11-2-13 1-8 5-1 2v6l3 5 10 6 26 12 11 8 6 7 4 10v11l-4 10-5 6-14 7-9 2-15 1-17-2-12-4-9-5-1-3 5-17 17 8 11 3h17l10-4 4-6-1-8-5-5-8-5-25-11-11-7-7-8-2-5v-15l5-10 9-8 9-4z" fill="#060606"/>
<path transform="translate(322,104)" d="m0 0h5l8 16 14 29 13 28 14 29 4 9v2h-22l-10-22v-2l-47 1-10 23h-23l9-19 32-68 11-24zm1 38-12 27-2 6h30l-3-9-11-24z" fill="#060606"/>
<path transform="translate(604,105)" d="m0 0h99v17l-1 1h-38v94h-22v-94h-38z" fill="#0E0E0E"/>
</svg>
